<?xml version="1.0" encoding="UTF-8"?>
<!DOCTYPE svg PUBLIC "-//W3C//DTD SVG 1.1//EN" "http://www.w3.org/Graphics/SVG/1.1/DTD/svg11.dtd">
<!-- Creator: CorelDRAW X7 -->
<svg xmlns="http://www.w3.org/2000/svg" xml:space="preserve" width="6.41364in" height="8.3in" version="1.1" style="shape-rendering:geometricPrecision; text-rendering:geometricPrecision; image-rendering:optimizeQuality; fill-rule:evenodd; clip-rule:evenodd"
viewBox="0 0 6414 8300"
 xmlns:xlink="http://www.w3.org/1999/xlink">
 <defs>
  <style type="text/css">
   <![CDATA[
    .fil0 {fill:#F58634}
    .fil2 {fill:black}
    .fil1 {fill:#F58634;fill-rule:nonzero}
   ]]>
  </style>
 </defs>
 <g id="Layer_x0020_1">
  <metadata id="CorelCorpID_0Corel-Layer"/>
  <circle class="fil0" cx="2138" cy="2092" r="1459"/>
  <path class="fil1" d="M3558 2912c38,-63 119,-83 181,-46 62,37 82,117 46,179l0 0c-46,80 -98,156 -155,227 -58,73 -119,141 -185,202 -341,324 -802,522 -1307,522l0 0c-525,0 -1001,-214 -1346,-558 -345,-345 -558,-821 -558,-1346l0 0 0 0c0,-524 213,-1001 558,-1345 345,-345 821,-559 1346,-559l0 0 0 0c280,0 547,61 788,172 59,26 116,56 171,89 285,167 522,405 688,690 37,63 15,144 -48,180 -62,36 -143,15 -180,-48 -143,-246 -348,-452 -593,-596 -47,-28 -97,-53 -147,-76 -207,-95 -437,-147 -679,-147l0 0 0 0c-452,0 -862,184 -1159,481 -297,297 -482,707 -482,1159l0 0 0 0c0,452 185,862 482,1159 297,297 707,482 1159,482l0 0c435,0 832,-172 1126,-450 58,-55 112,-114 160,-174 49,-62 94,-128 133,-196l1 -1 0 0z"/>
  <path class="fil2" d="M1928 3541c-3,-1 -6,-3 -9,-4 -85,-8 -182,-29 -259,-60 -39,-19 -39,-73 -58,-104 -5,-33 -21,-64 -25,-97 4,-25 7,-67 20,-88 6,-37 20,-74 23,-113 3,-6 7,-12 12,-18 1,-14 1,-34 10,-47 0,-42 15,-85 22,-127 18,-27 20,-73 24,-104 21,-33 12,-80 33,-116 0,-34 7,-69 19,-101 6,-46 21,-94 26,-140 1,-8 4,-14 7,-20 2,-15 3,-29 5,-44 13,-21 5,-46 17,-70 2,-17 3,-32 5,-46 13,-29 21,-75 21,-108 3,-9 7,-17 12,-25 7,-74 29,-149 34,-223 9,-18 9,-43 0,-61 0,-20 16,-54 -3,-67 -6,6 -8,18 -9,27 -19,19 -19,46 -19,71 -9,1 -18,3 -26,6 0,-27 17,-46 26,-70 0,-22 0,-27 14,-42 -1,-4 -1,-9 -1,-13 -6,-2 -10,-2 -15,-2 -1,-41 -4,-34 -33,-56 -26,4 -64,25 -82,47 -8,2 -17,5 -25,8 -19,19 -74,49 -103,49 20,-19 51,-25 67,-42 12,-6 24,-12 38,-16 28,-25 56,-51 84,-74 -1,-5 -1,-9 -1,-12 -15,-24 -15,-64 -3,-90 0,-13 0,-25 -7,-35 0,-12 7,-11 16,-15 6,-6 21,-30 16,-39 -12,7 -25,15 -38,12 -2,-5 -2,-9 -2,-13 5,-5 9,-9 15,-14 0,-6 0,-10 0,-15 -3,-3 -6,-6 -9,-7 -15,0 -27,-2 -37,-12 -21,0 -19,45 -19,58 8,9 25,0 34,9 0,9 10,18 15,27 -5,0 -8,0 -11,0 -1,-5 -1,-9 -1,-14 -33,-3 -61,-16 -79,-44 0,-33 3,-32 27,-51 -6,-6 -11,-12 -15,-18 1,-3 3,-6 6,-7 4,9 10,18 16,26 6,-1 12,-1 18,-1 31,15 34,-6 34,-33 3,-9 6,-19 5,-30 -18,-13 -44,-34 -69,-34 -3,9 -9,27 -22,21 -3,-10 -5,-21 -6,-30 -16,5 -34,14 -52,14 -6,-12 -5,-27 -5,-41 -13,-4 -25,-8 -32,-20 -33,0 -72,20 -99,37 0,4 0,9 0,13 17,30 15,42 -6,63 -65,0 -56,6 -62,-45 -23,0 -45,18 -61,28 -23,6 -51,14 -67,30 -9,3 -17,6 -24,9 -22,22 -70,52 -45,91 3,22 6,34 15,52 0,58 42,110 49,167 20,41 29,91 52,131 0,10 0,21 0,33 -55,44 -131,62 -192,98 -22,7 -43,15 -67,15 -6,-8 -12,-14 -16,-20 -16,-40 -31,-88 -55,-123 -6,-30 -21,-63 -30,-93 -4,-7 -9,-13 -12,-19 -3,-21 -10,-40 -25,-55 -13,-49 -42,-97 -54,-146 -18,-40 -50,-88 -25,-131 13,-21 31,-45 40,-67 24,-31 48,-62 72,-92 22,-40 61,-70 85,-109 6,0 25,-25 29,-30 105,-52 215,-95 319,-148 71,-18 134,-73 204,-87 34,-19 71,-34 109,-49 3,-3 6,-6 8,-9 0,-30 27,-53 53,-28 32,0 83,-25 113,-37 6,0 12,1 19,3 6,17 12,35 18,55 7,0 6,20 4,25 -4,1 -9,3 -11,6 0,3 0,6 1,9 7,-2 15,-2 22,-2 20,27 27,73 49,96 5,25 20,35 39,44 0,-9 -10,-22 -16,-28 -20,-39 -37,-76 -55,-113 -2,-24 -3,-48 -3,-72 -9,-3 -18,-6 -27,-7 -24,-49 51,-58 73,-74 13,-6 28,-11 43,-15 18,-2 36,-2 54,-2 18,-12 31,-12 52,-6 71,2 144,6 214,17 15,7 25,37 31,52 2,0 3,0 6,0 2,10 6,21 14,28 3,12 7,46 21,52 9,33 46,86 25,119 0,24 0,51 -12,72 0,37 -9,74 -12,111 -12,0 -7,60 -7,60 -12,21 -11,43 -11,67 -21,21 -3,52 -18,74 -1,14 -1,27 -1,40 -5,9 -9,18 -14,27 -1,14 -1,27 -1,40 -7,3 -13,6 -19,9 4,8 10,15 16,23 0,13 0,27 0,40 18,18 49,15 65,31 11,3 21,6 33,9 26,18 49,37 78,49 0,2 0,3 0,5 37,19 59,56 93,80 8,18 24,33 24,52 -4,2 -9,3 -12,6 -18,-18 -32,-37 -44,-61 -26,-12 -39,-28 -61,-48 -52,-23 -100,-62 -157,-77 -4,-4 -7,-9 -10,-13 -21,0 -55,23 -72,7 -3,-9 -16,-34 -26,-34 -2,18 -3,37 -3,56 12,12 12,17 15,32 -14,16 -32,9 -39,32 -11,5 -17,12 -11,26 44,13 90,13 112,59 0,32 8,55 -21,73 -16,2 -32,3 -47,5 -48,-3 -100,-18 -146,-8 -6,12 74,12 88,18 13,0 26,0 41,2 12,6 24,13 37,20 0,6 2,12 3,18 -7,8 -20,6 -29,12 0,9 6,36 13,39 0,4 0,10 2,16 -12,12 -23,11 -39,12 -8,-1 -15,-3 -22,-4 0,1 0,3 1,6 9,1 18,3 28,4 0,2 0,3 0,5 8,3 15,6 23,10 0,24 4,51 -6,72 -2,14 -3,31 -5,47 -13,17 -10,34 -10,55 -5,8 -8,15 -11,23 0,28 -9,55 -9,83 -13,27 -9,62 -25,85 0,49 -18,103 -22,152 -3,6 -6,12 -8,19 0,18 2,40 -12,54 0,12 0,25 0,38 -10,26 -6,57 -22,79 0,30 -4,69 -10,97 -5,6 -9,12 -12,19 -3,21 -5,44 -6,66 31,12 73,-25 106,-31 22,-23 72,3 95,14 0,24 -9,21 -26,24 -5,2 -11,5 -17,8 3,-6 7,-11 12,-15 -20,-39 -73,-12 -100,6 0,4 0,9 0,13 6,3 13,6 21,11 13,-2 28,-6 43,-3 0,43 62,4 79,-2 21,-3 35,-10 47,-28 20,0 30,-15 45,-24 9,-4 19,-9 30,-12 41,0 70,-34 111,-39 0,-19 33,-19 47,-19 -8,15 -29,24 -44,28 -1,5 -3,9 -3,14 9,15 29,3 36,19 -19,19 -68,34 -95,45 -25,22 -67,31 -94,49 -4,7 -7,16 -10,25 -29,14 -72,-7 -90,30 3,1 8,3 12,6 14,-3 29,-7 40,-2 0,3 0,6 0,9 -10,5 -26,0 -37,0 -3,30 -19,26 -47,26 -6,3 -11,6 -15,10 -36,0 -72,-15 -105,5 -16,1 -32,3 -49,4 0,2 0,5 0,7 24,3 90,23 112,8 22,1 45,3 67,6 37,0 74,-18 104,-36 24,-9 48,-18 72,-27 35,-23 77,-31 102,-70 15,0 30,2 47,3 37,-15 71,-40 111,-49 43,-22 87,-44 131,-67 33,-22 60,-35 72,-74 7,-2 16,-3 25,-5 -3,-9 -6,-16 -9,-23 -1,-29 -3,-45 -21,-67 -6,-30 -12,-60 -16,-90 -21,-44 -40,-89 -60,-134 -9,-35 -43,-94 -22,-126 34,-9 65,-32 98,-39 28,-21 66,-31 97,-45 30,-18 61,-34 92,-10 17,40 45,83 55,125 18,33 32,70 44,104 8,18 19,36 29,55 14,6 14,24 17,37 9,18 18,36 28,56 30,78 74,154 109,232 0,18 -12,38 -20,55 -18,27 -34,53 -50,82 -3,0 -5,0 -6,0 -39,98 -173,105 -247,165 -45,15 -87,42 -133,57 -21,20 -73,35 -103,47 -17,11 -35,23 -53,34 -31,9 -70,21 -97,41 -82,28 -162,64 -238,104 -61,25 -122,50 -183,76 -48,21 -96,43 -142,65 -16,8 -32,15 -47,23 -55,15 -106,40 -164,50zm155 -436c-3,-1 -6,-3 -8,-3 0,-19 2,-37 3,-55 5,-9 11,-16 17,-24 19,0 35,9 55,15 0,2 1,5 3,7 18,-28 52,-25 83,-17 0,10 -31,23 -40,28 -15,1 -30,3 -43,4 -9,-4 -14,-3 -23,0 -9,27 -23,32 -47,45zm201 -167c-3,-1 -5,-3 -6,-4 0,-21 1,-18 21,-18 3,1 7,3 11,6 0,3 0,6 0,9 -5,6 -17,6 -26,7zm-105 -44c-8,-3 -16,-5 -23,-6 12,-12 34,-24 53,-20 0,18 -15,23 -30,26zm69 -27c-7,-8 -15,-9 -15,-22 9,-6 21,-3 30,2 0,14 -3,17 -15,20zm100 -3c-2,-2 -3,-3 -3,-5 9,-9 19,-13 35,-13 -6,12 -20,15 -32,18zm278 -27c-3,-1 -4,-3 -6,-3 0,-10 5,-12 15,-9 0,6 -4,11 -9,12zm-51 -10c-1,-3 -3,-5 -4,-6 3,-2 7,-3 12,-5 -3,3 -6,6 -8,11zm-74 -30c0,-17 -1,-19 12,-30 13,-6 27,-10 40,-15 6,6 8,6 8,15 -15,0 -27,0 -32,15 -10,4 -19,9 -28,15zm140 -40c-3,-2 -4,-2 -6,-2 0,-12 2,-19 7,-28 14,1 27,3 41,6 0,22 -24,21 -42,24zm109 -35c-5,-4 -6,-11 -2,-17 3,0 8,0 12,0 2,4 3,9 5,14 -6,0 -11,2 -15,3zm-108 -19c0,-36 36,-28 59,-46 35,-13 67,-36 102,-42 20,-19 54,-40 84,-28 0,3 0,6 0,10 -12,5 -23,11 -33,17 -8,1 -15,4 -21,7 -10,0 -21,2 -30,3 -13,27 -56,34 -83,49 -22,6 -48,11 -64,27 -5,0 -9,2 -14,3zm663 -289c-2,-3 -3,-6 -5,-9 3,-1 8,-1 12,-1 0,3 0,6 0,9 -3,0 -6,0 -7,1zm-374 -253c-6,-3 -10,-6 -15,-9 -9,-24 17,-59 39,-37 0,15 3,28 -1,42 -8,1 -15,3 -23,4zm-1518 -27c-23,-10 -37,-32 -23,-56 23,-11 44,-31 69,-15 21,0 58,6 76,-6 4,0 9,0 13,1 0,14 -37,41 -47,48 -29,14 -57,24 -88,28zm1057 -29c-17,-9 -39,-36 -51,-51 0,-45 25,-39 51,-13 7,9 15,17 22,28 -3,10 -6,21 -7,31 -6,2 -11,3 -15,5zm-804 -75c-3,-1 -6,-3 -8,-4 -34,-3 -56,-6 -50,-45 9,-24 10,-18 33,-22 7,7 7,19 4,29 7,11 33,29 33,39 -5,0 -9,2 -12,3zm522 -164c-6,-6 -10,-11 -14,-17 -11,-2 -21,-2 -30,-2 -11,-13 -12,-31 0,-43 4,-2 9,-2 15,-2 12,21 29,42 40,64 -5,0 -8,0 -11,0zm-433 -4c0,-12 -4,-10 3,-22 3,0 6,0 9,0 0,9 -6,16 -12,22zm637 -36c-4,-3 -7,-6 -10,-9 0,-19 -2,-27 16,-35 26,0 18,13 21,34 -9,9 -13,7 -27,10zm-926 -15c-1,-3 -3,-6 -4,-7 15,-2 31,-2 48,-2 0,8 -36,9 -44,9zm82 -12c11,-14 20,-11 39,-11 -10,10 -25,10 -39,11zm-134 -22c-3,-6 -6,-12 -9,-16 2,-2 5,-2 8,-2 1,6 4,12 7,18 -3,0 -4,0 -6,0zm398 -4c0,-9 4,-23 15,-23 0,3 0,6 0,9 -6,5 -11,9 -15,14zm56 -26c-1,-4 -1,-9 -1,-12 1,-1 4,-1 7,-1 0,3 0,6 0,9 -3,1 -4,3 -6,4zm-484 -64c0,-6 0,-10 0,-15 2,0 3,0 6,0 0,5 0,9 2,15 -3,0 -6,0 -8,0zm726 -70c-8,-4 -15,-9 -21,-12 -2,-19 -6,-64 7,-77 3,-1 6,-1 11,-1 10,22 0,37 -8,59 11,10 21,18 25,31 -6,0 -10,0 -14,0zm116 -122c-8,-7 -15,-13 -23,-19 -18,0 -34,1 -50,3 -8,3 -15,7 -21,12 1,-9 4,-18 7,-26 23,0 26,-1 35,-19 25,0 44,11 67,21 0,12 -2,25 -15,28zm87 -94c-14,-7 -29,-14 -43,-22 -13,0 -27,2 -40,3 -3,3 -6,8 -9,12 -4,-1 -7,-3 -10,-4 -11,0 -20,0 -29,0 -6,-5 -11,-9 -16,-14 0,-1 0,-3 0,-4 8,-5 15,-9 22,-14 0,-16 -4,-53 -29,-28 -5,0 -9,0 -14,2 -3,-2 -6,-3 -9,-5 0,-4 0,-7 0,-10 11,-11 55,-5 70,-5 3,6 20,15 26,9 1,-25 -2,-34 23,-28 5,1 9,4 14,7 25,2 52,3 79,6 0,2 0,3 0,6 -12,3 -24,6 -35,11 -16,10 -11,17 -14,34 14,15 46,34 14,44zm-177 -25c-1,-1 -3,-3 -4,-4 4,-5 12,-5 18,-3 0,1 0,3 0,6 -5,0 -9,0 -14,1zm78 0c-5,-3 -8,-6 -11,-7 0,-6 0,-12 0,-17 9,-9 23,-6 35,-7 4,4 3,22 -3,28 -8,0 -15,2 -21,3zm-72 -89c-3,-2 -4,-3 -6,-5 0,-17 11,-31 17,-47 3,1 6,3 10,4 0,3 0,6 2,9 -15,8 -12,22 -15,37 -3,0 -6,0 -8,2zm67 -91c-1,-6 -3,-10 -3,-15 2,-3 3,-4 5,-6 7,-1 16,-1 25,-1 0,1 0,3 0,4 -15,0 -21,5 -22,18 -2,0 -3,0 -5,0zm-169 -194c-5,-8 -8,-10 -8,-22 12,0 21,3 21,17 -5,1 -9,3 -13,5zm96 -151c-7,-14 -22,-33 -9,-47 0,-22 -1,-40 12,-58 2,-6 3,-11 5,-17 32,16 16,86 7,114 -6,2 -10,5 -15,8zm-56 -93c-2,-3 -3,-4 -3,-6 6,-9 9,-10 21,-10 -5,9 -9,13 -18,16zm-338 -16c-30,-30 0,-70 36,-46 0,12 0,25 0,39 -12,1 -24,4 -36,7z"/>
 </g>
</svg>
