<?xml version="1.0" encoding="UTF-8"?>
<!DOCTYPE svg PUBLIC "-//W3C//DTD SVG 1.1//EN" "http://www.w3.org/Graphics/SVG/1.1/DTD/svg11.dtd">
<!-- Creator: CorelDRAW X7 -->
<svg xmlns="http://www.w3.org/2000/svg" xml:space="preserve" width="50px" height="50px" version="1.1" style="shape-rendering:geometricPrecision; text-rendering:geometricPrecision; image-rendering:optimizeQuality; fill-rule:evenodd; clip-rule:evenodd"
viewBox="0 0 50 50"
 xmlns:xlink="http://www.w3.org/1999/xlink">
 <defs>
  <style type="text/css">
   <![CDATA[
    .fil0 {fill:#F58634}
    .fil2 {fill:black}
    .fil1 {fill:#F58634;fill-rule:nonzero}
   ]]>
  </style>
 </defs>
 <g id="Layer_x0020_1">
  <metadata id="CorelCorpID_0Corel-Layer"/>
  <circle class="fil0" cx="26" cy="25" r="18"/>
  <path class="fil1" d="M44 36c0,-1 1,-1 2,-1 1,0 1,1 1,2l0 0c-1,1 -2,2 -2,3 -1,1 -2,2 -3,3 -4,4 -9,6 -16,6l0 0c-6,0 -12,-3 -16,-7 -5,-4 -7,-10 -7,-17l0 0 0 0c0,-6 2,-12 7,-16 4,-5 10,-7 16,-7l0 0 0 0c4,0 7,0 10,2 1,0 1,1 2,1 4,2 7,5 9,9 0,0 0,1 -1,2 -1,0 -2,0 -2,-1 -2,-3 -4,-5 -7,-7 -1,-1 -2,-1 -2,-1 -3,-1 -6,-2 -9,-2l0 0 0 0c-5,0 -10,2 -14,6 -4,4 -6,9 -6,14l0 0 0 0c0,6 2,11 6,15 4,3 9,6 14,6l0 0c6,0 11,-2 14,-6 1,-1 2,-1 2,-2 1,-1 1,-2 2,-2l0 0 0 0z"/>
  <path class="fil2" d="M24 43c0,0 0,0 0,0 -2,0 -3,0 -4,0 0,-1 0,-1 0,-2 0,0 -1,-1 -1,-1 0,0 0,-1 1,-1 0,0 0,-1 0,-1 0,-1 0,-1 0,-1 0,0 0,0 0,0 0,-1 0,-1 0,-2 1,0 1,-1 1,-1 0,-1 0,-1 0,-2 0,0 0,0 0,-1 0,0 1,-1 1,-2 0,0 0,0 0,0 0,0 0,0 0,0 0,-1 0,-1 0,-1 0,0 0,-1 0,-1 0,0 0,-1 0,-1 0,0 0,0 0,0 1,-1 1,-2 1,-3 0,0 0,-1 0,-1 0,0 0,-1 0,-1 0,0 0,0 0,1 0,0 0,0 0,0 -1,0 -1,0 -1,1 0,-1 0,-1 1,-1 0,-1 0,-1 0,-1 0,0 0,0 0,0 0,0 0,0 -1,0 0,-1 0,0 0,-1 0,0 -1,1 -1,1 0,0 0,0 0,0 0,0 -1,1 -2,1 1,-1 1,-1 1,-1 0,0 1,0 1,0 0,-1 0,-1 1,-1 0,0 0,0 0,0 0,-1 0,-1 0,-1 0,-1 0,-1 0,-1 0,0 0,0 0,0 0,0 0,0 0,0 0,0 0,0 0,0 0,0 0,0 0,0 0,-1 0,-1 0,-1 0,0 0,0 0,0 0,0 0,0 0,0 -1,0 -1,0 -1,0 0,0 0,0 0,1 0,0 0,0 0,0 0,0 1,0 1,0 0,0 -1,0 -1,0 0,0 0,0 0,0 0,0 0,0 -1,-1 0,0 0,0 1,0 0,0 0,0 0,0 0,-1 0,-1 0,-1 0,1 0,1 0,1 0,0 0,0 0,0 0,0 1,0 1,-1 0,0 0,0 0,0 -1,0 -1,0 -1,0 0,0 0,0 -1,0 0,0 0,0 0,-1 0,0 0,1 0,1 0,-1 0,-1 0,-1 0,0 -1,0 -1,0 0,0 -1,0 -1,0 0,0 0,0 0,0 0,1 0,1 0,1 -1,0 -1,0 -1,0 0,0 0,0 -1,0 0,0 0,0 0,0 -1,0 -1,0 -1,1 0,0 -1,0 0,1 0,0 0,0 0,0 0,1 0,2 1,2 0,1 0,1 0,2 0,0 0,0 0,0 0,1 -1,1 -2,2 0,0 -1,0 -1,0 0,0 0,0 0,0 0,-1 -1,-2 -1,-2 0,0 0,-1 0,-1 0,0 0,0 0,0 0,-1 -1,-1 -1,-1 0,-1 0,-1 0,-2 -1,0 -1,-1 -1,-1 0,-1 1,-1 1,-1 0,-1 0,-1 1,-1 0,-1 0,-1 1,-2 0,0 0,0 0,0 1,-1 3,-1 4,-2 1,0 2,-1 3,-1 0,0 0,-1 1,-1 0,0 0,0 0,0 0,0 0,0 1,0 0,0 1,0 1,-1 0,0 0,0 0,0 0,1 0,1 1,1 0,0 0,0 0,0 0,0 -1,0 -1,0 0,0 0,1 0,1 1,0 1,0 1,0 0,0 0,0 0,1 0,0 1,0 1,0 0,0 0,0 0,0 -1,-1 -1,-1 -1,-1 0,-1 0,-1 0,-1 0,0 0,0 0,0 -1,-1 0,-1 0,-1 1,0 1,0 1,-1 0,0 0,0 1,0 0,0 0,0 0,0 1,0 2,0 3,1 0,0 0,0 0,0 0,0 0,0 0,0 0,0 1,0 1,1 0,0 0,0 0,0 0,1 0,1 0,2 0,0 0,0 0,1 0,0 0,0 0,1 0,0 0,1 0,1 0,0 0,0 0,1 -1,0 0,0 -1,0 0,1 0,1 0,1 0,0 0,0 0,0 0,0 0,1 0,1 0,0 0,0 0,0 0,0 0,0 0,0 0,0 0,1 0,1 0,0 1,0 1,0 0,0 0,0 0,0 1,0 1,1 1,1 0,0 0,0 0,0 1,0 1,1 2,1 0,0 0,0 0,0 0,0 0,1 0,1 -1,-1 -1,-1 -1,-1 0,0 0,-1 -1,-1 0,0 -1,-1 -2,-1 0,0 0,0 0,0 0,0 0,0 -1,0 0,0 0,0 0,0 0,0 0,0 0,0 0,1 0,1 0,1 0,0 0,0 0,0 0,0 0,0 0,1 0,0 1,0 1,0 0,1 0,1 0,1 0,0 -1,0 -1,0 0,0 -1,0 -2,0 0,0 1,0 1,0 1,0 1,0 1,0 0,0 0,1 0,1 0,0 0,0 0,0 0,0 0,0 0,0 0,0 0,0 0,1 0,0 0,0 0,0 0,0 0,0 0,0 0,0 0,0 0,0 0,0 0,0 0,0 0,0 0,0 0,0 0,0 0,0 0,0 0,0 0,0 0,0 0,0 0,1 0,1 0,0 0,0 0,1 0,0 0,0 0,0 0,0 0,0 0,1 0,0 0,0 0,1 0,0 0,0 -1,1 0,0 0,1 0,2 0,0 0,0 0,0 0,0 0,0 0,0 0,1 0,1 0,1 0,0 0,1 0,1 0,0 0,1 -1,1 0,0 0,0 0,0 0,1 0,1 0,1 1,0 1,0 2,0 0,-1 0,0 1,0 0,0 0,0 -1,0 0,0 0,0 0,0 0,0 0,0 0,0 0,0 -1,0 -1,0 0,0 0,0 0,0 0,0 0,0 0,1 1,0 1,-1 1,-1 0,1 1,1 1,0 0,0 0,0 0,0 1,0 1,0 1,0 0,0 0,0 0,0 1,0 1,-1 2,-1 0,0 0,0 0,0 0,0 0,0 0,0 0,0 0,0 0,0 0,1 0,1 0,1 0,0 -1,0 -1,0 0,1 -1,1 -1,1 0,0 0,0 0,0 -1,0 -1,0 -1,1 0,0 0,0 0,0 0,0 0,0 0,0 0,0 0,0 0,0 0,0 0,0 0,0 0,0 0,0 -1,0 0,0 0,0 0,0 0,0 -1,0 -1,0 0,0 -1,0 -1,0 0,0 0,0 0,0 0,0 1,1 2,0 0,0 0,0 0,1 1,0 1,-1 2,-1 0,0 0,0 1,0 0,-1 0,-1 1,-1 0,0 0,0 0,0 1,0 1,-1 2,-1 0,0 1,0 1,-1 1,0 1,0 1,0 0,0 0,0 1,0 0,-1 0,-1 -1,-1 0,0 0,0 0,-1 0,0 0,0 0,-1 0,0 0,-1 -1,-1 0,-1 0,-2 0,-2 0,0 1,0 1,0 1,-1 1,-1 1,-1 1,0 1,0 2,0 0,0 0,1 0,1 0,1 1,1 1,2 0,0 0,0 0,0 0,0 0,1 0,1 0,0 1,0 1,1 0,1 1,1 1,2 0,1 0,1 0,1 0,0 -1,1 -1,1 0,0 0,0 0,0 0,1 -2,1 -3,2 -1,0 -1,1 -2,1 0,0 0,0 -1,0 0,1 0,1 -1,1 0,0 0,0 -1,0 -1,1 -2,1 -3,2 0,0 -1,0 -2,1 -1,0 -1,0 -2,0 0,1 0,1 0,1 -1,0 -2,0 -2,0zm2 -5c0,0 0,0 -1,0 0,0 1,-1 1,-1 0,0 0,0 0,0 0,0 0,0 0,0 0,0 0,0 0,0 1,0 1,0 1,0 0,0 0,0 0,0 0,0 0,0 -1,0 0,0 0,0 0,0 0,1 0,1 0,1zm2 -2c0,0 0,0 0,0 0,0 0,0 0,0 0,0 0,0 0,0 0,0 0,0 0,0 0,0 0,0 0,0zm-1 -1c0,0 0,0 -1,0 1,0 1,0 1,0 0,0 0,0 0,0zm1 0c0,0 -1,0 -1,0 1,0 1,0 1,0 0,0 0,0 0,0zm1 0c0,0 0,0 0,0 0,0 0,0 0,0 0,0 0,0 0,0zm3 0c0,0 0,0 0,0 0,-1 0,-1 0,-1 0,1 0,1 0,1zm0 -1c0,0 0,0 0,0 0,0 0,0 0,0 0,0 0,0 0,0zm-1 0c0,0 0,0 0,0 0,0 0,0 0,0 0,0 1,0 1,0 -1,0 -1,0 -1,0 0,0 0,0 0,0zm2 0c-1,0 -1,0 -1,0 0,-1 0,-1 1,-1 0,0 0,0 0,0 0,1 0,1 0,1zm1 -1c0,0 0,0 0,0 0,0 0,0 0,0 0,0 0,0 0,0 0,0 0,0 0,0zm-1 0c0,0 0,0 0,-1 1,0 1,0 2,0 0,0 0,-1 1,0 0,0 0,0 0,0 -1,0 -1,0 -1,0 0,0 0,0 0,0 0,0 0,0 0,0 -1,0 -1,0 -2,1 0,0 0,0 0,0 0,0 0,0 0,0zm8 -4c0,0 0,0 0,0 0,0 0,0 0,0 0,0 0,0 0,0 0,0 0,0 0,0zm-5 -3c0,0 0,0 0,0 0,0 0,-1 0,0 0,0 0,0 0,0 0,0 0,0 0,0zm-19 0c0,0 0,-1 0,-1 0,0 1,0 1,0 0,0 1,0 1,0 0,0 0,0 0,0 0,0 -1,0 -1,1 0,0 0,0 -1,0zm13 0c0,-1 0,-1 0,-1 0,-1 0,-1 0,0 0,0 1,0 1,0 0,0 0,0 0,0 -1,0 -1,1 -1,1zm-10 -1c0,0 0,0 0,0 0,0 0,-1 0,-1 0,0 0,0 0,0 0,0 0,0 0,0 0,0 1,0 1,1 -1,0 -1,0 -1,0zm7 -2c0,-1 0,-1 0,-1 0,0 -1,0 -1,0 0,0 0,0 0,0 0,0 0,0 1,0 0,0 0,0 0,1 0,0 0,0 0,0zm-5 0c0,-1 -1,-1 0,-1 0,0 0,0 0,0 0,0 0,0 0,1zm7 -1c0,0 0,0 0,0 0,0 0,0 0,0 1,0 1,0 1,0 0,0 0,0 -1,0zm-11 0c0,0 0,0 0,0 0,0 0,0 0,0 0,0 0,0 0,0zm1 0c0,0 0,0 0,0 0,0 0,0 0,0zm-2 -1c0,0 0,0 0,0 0,0 0,0 0,0 0,0 0,0 0,0 0,0 0,0 0,0zm5 0c0,0 0,0 0,0 0,0 0,0 0,0 0,0 0,0 0,0zm1 0c0,0 0,0 0,0 0,0 0,0 0,0 0,0 0,0 0,0 0,0 0,0 0,0zm-6 -1c0,0 0,0 0,0 0,0 0,0 0,0 0,0 0,0 0,0 0,0 0,0 0,0zm9 -1c0,0 0,0 0,0 0,0 0,-1 0,-1 0,0 0,0 0,0 0,1 0,1 0,1 0,0 0,0 0,0 0,0 0,0 0,0zm1 -1c0,0 0,0 0,0 0,0 0,0 -1,0 0,0 0,0 0,0 0,0 0,0 0,0 1,0 1,0 1,-1 0,0 0,0 1,1 0,0 0,0 -1,0zm1 -1c0,0 0,0 0,-1 0,0 0,0 -1,1 0,0 0,0 0,0 0,0 0,0 0,0 0,0 0,0 0,0 0,0 0,-1 0,-1 0,0 0,0 0,0 0,0 0,0 0,0 0,0 0,0 0,0 -1,0 -1,0 -1,0 0,0 0,0 0,0 0,0 0,0 0,0 0,0 1,0 1,0 0,0 0,0 0,0 0,-1 0,-1 1,-1 0,0 0,0 0,0 0,1 1,1 1,1 0,0 0,0 0,0 0,0 0,0 -1,0 0,0 0,0 0,0 0,0 1,1 0,1zm-2 -1c0,0 0,0 0,0 0,0 0,0 0,0 0,0 0,0 0,0 0,0 0,0 0,0zm1 0c0,0 0,0 0,0 0,0 0,0 0,0 0,0 0,0 1,0 0,0 0,0 -1,0 0,0 0,0 0,0zm-1 -1c0,0 0,0 0,0 0,0 0,0 0,0 0,0 1,0 1,0 0,0 0,0 0,0 -1,0 -1,0 -1,0 0,0 0,0 0,0zm1 -1c0,0 0,0 0,0 0,0 0,0 0,0 0,0 0,0 0,0 0,0 0,0 0,0 0,0 0,0 0,0 0,0 0,0 0,0zm-2 -2c0,0 0,0 0,0 0,0 0,0 0,0 0,0 0,0 0,0zm1 -2c0,0 0,-1 0,-1 0,0 0,0 0,0 0,0 0,-1 0,-1 1,1 1,1 0,2 0,0 0,0 0,0zm0 -1c0,0 0,0 0,0 0,0 0,0 0,0 0,0 0,0 0,0zm-5 0c0,-1 0,-1 1,-1 0,0 0,0 0,0 0,0 -1,1 -1,1z"/>
 </g>
</svg>
