<?xml version="1.0" encoding="UTF-8"?>
<!DOCTYPE svg PUBLIC "-//W3C//DTD SVG 1.1//EN" "http://www.w3.org/Graphics/SVG/1.1/DTD/svg11.dtd">
<!-- Creator: CorelDRAW X7 -->
<svg xmlns="http://www.w3.org/2000/svg" xml:space="preserve" width="450px" height="156px" version="1.1" style="shape-rendering:geometricPrecision; text-rendering:geometricPrecision; image-rendering:optimizeQuality; fill-rule:evenodd; clip-rule:evenodd"
viewBox="0 0 450 156"
 xmlns:xlink="http://www.w3.org/1999/xlink">
 <defs>
  <style type="text/css">
   <![CDATA[
    .fil1 {fill:#F58634}
    .fil3 {fill:#FEFEFE;fill-rule:nonzero}
    .fil0 {fill:#373435;fill-rule:nonzero}
    .fil2 {fill:#F58634;fill-rule:nonzero}
   ]]>
  </style>
 </defs>
 <g id="Layer_x0020_1">
  <metadata id="CorelCorpID_0Corel-Layer"/>
  <path class="fil0" d="M341 32l0 0 0 0c-4,0 -8,2 -11,5 -2,2 -4,6 -4,9l0 0 0 1c0,3 2,7 4,9 3,3 7,5 11,5l0 0 0 0c4,0 7,-2 10,-5 3,-2 4,-6 4,-10l0 0 0 0c0,-3 -1,-7 -4,-9 -3,-3 -6,-5 -10,-5zm63 -8c0,-5 4,-9 10,-9 5,0 9,4 9,9l0 74c0,5 -4,9 -9,9 -6,0 -10,-4 -10,-9l0 -74zm-244 36l0 -17 0 0c0,-3 -2,-5 -4,-7 -2,-2 -5,-4 -8,-4l0 0 0 0c-3,0 -6,2 -8,4 -2,2 -3,4 -3,7l0 0 0 17 23 0zm-23 38c0,5 -4,9 -9,9 -5,0 -10,-4 -10,-9l0 -29 0 -26 0 0c0,-8 4,-15 9,-20 6,-5 13,-8 21,-8l0 0 0 0c9,0 16,3 21,8 6,5 9,12 9,20l0 0 0 26 0 29c0,5 -4,9 -9,9 -5,0 -9,-4 -9,-9l0 -20 -23 0 0 20zm-112 -66c-6,0 -10,-4 -10,-8 0,-5 4,-9 10,-9l51 0c7,0 11,8 8,13l-40 62 35 0c5,0 9,4 9,8 0,5 -4,9 -9,9l-52 0c-7,0 -12,-8 -8,-13l40 -62 -34 0zm327 44l19 16c4,3 4,9 1,12 -3,4 -9,4 -13,1l-33 -28 0 21c0,5 -4,9 -9,9 -6,0 -10,-4 -10,-9l0 -50c0,-1 0,-2 1,-3 0,-8 4,-15 9,-21 6,-6 15,-9 24,-9l0 0 0 0c9,0 17,3 23,9 6,6 10,14 10,22l0 0 0 0c0,9 -4,17 -10,23 -3,3 -7,6 -12,7z"/>
  <path class="fil1" d="M202 3l80 0c5,0 9,4 9,9l0 134c0,5 -4,10 -9,10l-80 0c-5,0 -10,-5 -10,-10l0 -134c0,-5 5,-9 10,-9z"/>
  <g id="_2095064203184">
   <path class="fil2" d="M351 120l0 0c4,0 8,2 11,4 3,3 4,7 4,11l0 0 0 0c0,4 -1,8 -4,11 -3,2 -7,4 -11,4l0 0 0 0c-4,0 -8,-2 -11,-4 -3,-3 -5,-7 -5,-11l0 0 0 0c0,-4 2,-8 5,-11 3,-2 7,-4 11,-4l0 0zm0 7l0 0 0 0c-2,0 -5,1 -6,2 -1,2 -2,4 -2,6l0 0 0 0c0,2 1,4 2,6 1,1 4,2 6,2l0 0 0 0c2,0 4,-1 6,-2 1,-2 2,-4 2,-6l0 0 0 0c0,-2 -1,-4 -2,-6 -2,-1 -4,-2 -6,-2z"/>
   <path class="fil2" d="M303 146c0,2 -1,4 -3,4 -2,0 -4,-2 -4,-4l0 -14 0 0c0,-3 1,-6 3,-8 2,-3 5,-4 9,-4l0 0 0 0c3,0 6,1 8,3 2,-2 5,-3 8,-3l0 0 0 0c3,0 6,1 9,4 2,2 3,5 3,8l0 0 0 14c0,2 -2,4 -4,4 -2,0 -3,-2 -3,-4l0 -14 0 0c0,-2 -1,-3 -2,-4 0,0 -2,-1 -3,-1l0 0 0 0c-1,0 -2,1 -3,1 -1,1 -1,2 -1,4l0 0 0 14c0,2 -2,4 -4,4 -2,0 -4,-2 -4,-4l0 -14 0 0c0,-2 0,-3 -1,-4 -1,0 -2,-1 -3,-1l0 0 0 0c-1,0 -3,1 -3,1 -1,1 -2,2 -2,4l0 0 0 14z"/>
   <path class="fil2" d="M404 131l14 0c0,0 -1,-1 -1,-2l0 0c-2,-1 -4,-2 -6,-2l0 0 0 0c-2,0 -4,1 -6,2l0 0c-1,1 -1,2 -1,2zm19 8l-19 0c0,0 0,1 1,2 2,1 4,2 6,2l0 0 0 0c1,0 2,0 3,-1 0,0 0,0 0,0 1,0 2,0 2,-1 2,-1 4,-1 5,1 2,1 1,3 0,5 -1,0 -3,1 -4,2 0,0 0,0 -1,0 -1,1 -3,1 -5,1l0 0 0 0c-4,0 -8,-2 -11,-4 -3,-3 -5,-7 -5,-11l0 0 0 0c0,-4 2,-8 5,-11l0 0c3,-2 7,-4 11,-4l0 0 0 0c4,0 8,2 11,4l0 0c3,3 4,7 4,11l0 0c0,2 -1,4 -3,4z"/>
   <path class="fil2" d="M380 120l0 0c3,0 6,1 8,2l0 -10c0,-2 2,-4 4,-4 2,0 4,2 4,4l0 21c0,1 0,1 0,1 0,0 0,1 0,1l0 0 0 0c0,4 -2,8 -5,11 -3,2 -7,4 -11,4l0 0 0 0c-4,0 -8,-2 -11,-4l0 0c-3,-3 -4,-7 -4,-11l0 0 0 0c0,-4 1,-8 4,-11l0 0c3,-2 7,-4 11,-4l0 0zm0 7l0 0 0 0c-2,0 -4,1 -6,2l0 0c-1,2 -2,4 -2,6l0 0 0 0c0,2 1,4 2,6l0 0c2,1 4,2 6,2l0 0 0 0c2,0 4,-1 6,-2 1,-2 2,-4 2,-6l0 0 0 0c0,-2 -1,-4 -2,-6 -2,-1 -4,-2 -6,-2z"/>
  </g>
  <path class="fil3" d="M227 52l30 0 0 -28c0,-5 4,-9 9,-9 5,0 9,4 9,9l0 74c0,5 -4,9 -9,9 -5,0 -9,-4 -9,-9l0 -28 -30 0 0 28c0,5 -4,9 -9,9 -5,0 -9,-4 -9,-9l0 -74c0,-5 4,-9 9,-9 5,0 9,4 9,9l0 28z"/>
 </g>
</svg>
